M48
; DRILL file {KiCad 8.0.7-8.0.7-0~ubuntu22.04.1} date 2025-02-08T17:57:32+0200
; FORMAT={-:-/ absolute / metric / decimal}
; #@! TF.CreationDate,2025-02-08T17:57:32+02:00
; #@! TF.GenerationSoftware,Kicad,Pcbnew,8.0.7-8.0.7-0~ubuntu22.04.1
; #@! TF.FileFunction,Plated,1,2,PTH
FMAT,2
METRIC
; #@! TA.AperFunction,Plated,PTH,ComponentDrill
T1C0.600
; #@! TA.AperFunction,Plated,PTH,ComponentDrill
T2C0.750
; #@! TA.AperFunction,Plated,PTH,ComponentDrill
T3C0.800
; #@! TA.AperFunction,Plated,PTH,ComponentDrill
T4C1.000
; #@! TA.AperFunction,Plated,PTH,ComponentDrill
T5C1.320
%
G90
G05
T1
X157.6Y-81.8
T2
X147.0Y-89.66
X147.0Y-90.93
X147.0Y-92.2
X154.7Y-89.66
X154.7Y-90.93
X154.7Y-92.2
X162.075Y-89.63
X162.075Y-90.9
X162.075Y-92.17
T3
X137.575Y-91.15
X138.5Y-73.1
X138.5Y-85.8
X142.575Y-91.15
X143.5Y-83.6
X144.75Y-74.025
X144.9Y-78.675
X147.15Y-95.375
X147.15Y-108.075
X148.5Y-83.6
X151.725Y-95.4
X151.725Y-108.1
X152.1Y-85.2
X156.225Y-98.55
X156.225Y-103.55
X157.1Y-85.2
X157.45Y-74.025
X157.6Y-78.675
X160.1Y-74.075
X160.2Y-78.5
X161.125Y-95.4
X161.125Y-108.1
X161.5Y-84.8
X165.5Y-95.45
X165.5Y-108.15
X166.5Y-84.8
X170.225Y-95.75
X170.225Y-108.45
X172.8Y-74.075
X172.9Y-78.5
T4
X163.6Y-81.8
T5
X136.55Y-101.4
X136.55Y-106.4
M30
